<svg width="56" height="56" viewBox="0 0 56 56" fill="none" xmlns="http://www.w3.org/2000/svg">
<circle cx="28" cy="28" r="28" fill="white"/>
<circle cx="28" cy="28" r="27.5" stroke="#313131" stroke-opacity="0.3"/>
<path fill-rule="evenodd" clip-rule="evenodd" d="M41.5289 18.5173C39.9285 16.8943 37.7991 16 35.5303 16H35.5284C33.2597 16 31.1321 16.8943 29.5355 18.5154C28.9086 19.1499 28.3927 19.8653 27.9973 20.6392C27.6038 19.8653 27.0879 19.1499 26.4628 18.5173C24.8643 16.8943 22.7368 16 20.4662 16H20.4643C18.1974 16 16.068 16.8943 14.4676 18.5173C11.1728 21.8611 11.1728 27.3023 14.4959 30.6687L27.9973 43.338L41.5289 30.6424C44.8237 27.3023 44.8237 21.8611 41.5289 18.5173Z" fill="#313131" fill-opacity="0.3"/>
</svg>
