<svg width="33" height="33" viewBox="0 0 33 33" fill="none" xmlns="http://www.w3.org/2000/svg">
<path d="M7.89615 32.9485C8.04607 32.9821 8.20047 33 8.35487 33H15.4461C16.6745 33 17.6681 32.0042 17.6681 30.7779V21.5271C17.6681 19.3968 19.3955 17.6692 21.5258 17.6692H24.6451C24.7995 17.6692 24.9539 17.6513 25.1039 17.6178C29.9551 17.1008 33.4683 12.7484 32.9491 7.897C32.5083 3.75941 29.2391 0.492304 25.1039 0.0514681C24.9517 0.0179019 24.7995 0 24.6451 0H17.5539C16.3255 0 15.3319 0.995796 15.3319 2.22208V15.3308H8.35711C8.20271 15.3308 8.04831 15.3487 7.89839 15.3822C3.04488 15.8992 -0.46827 20.2516 0.0508701 25.103C0.491692 29.2406 3.76093 32.5077 7.89615 32.9485Z" fill="#313131"/>
</svg>
