<svg width="76" height="76" viewBox="0 0 76 76" fill="none" xmlns="http://www.w3.org/2000/svg">
<path d="M0 0H63C70.1797 0 76 5.8203 76 13V63C76 70.1797 70.1797 76 63 76H13C5.8203 76 0 70.1797 0 63V0Z" fill="#584DDB" fill-opacity="0.61"/>
<path fill-rule="evenodd" clip-rule="evenodd" d="M50.8202 46.8807C53.5088 43.3619 55.1247 38.9877 55.1247 34.2291C55.1247 22.7058 45.7523 13.3334 34.2291 13.3334C22.7058 13.3334 13.3334 22.7058 13.3334 34.2291C13.3334 45.7523 22.7058 55.1247 34.2291 55.1247C38.9877 55.1247 43.3647 53.5088 46.8835 50.8202L58.7272 62.6667L62.6667 58.7272L50.8202 46.8807ZM34.2291 49.5526C25.7788 49.5526 18.9055 42.6765 18.9055 34.2291C18.9055 25.7816 25.7788 18.9055 34.2291 18.9055C42.6793 18.9055 49.5526 25.7816 49.5526 34.2291C49.5526 42.6765 42.6793 49.5526 34.2291 49.5526Z" fill="white"/>
</svg>
